<svg width="10" height="10" viewBox="0 0 10 10" fill="none" xmlns="http://www.w3.org/2000/svg">
<g clip-path="url(#clip0)">
<path d="M0.0641531 2.76187L4.84817 7.54589C4.93308 7.63078 5.07073 7.63078 5.15566 7.54589L9.93968 2.76188C10.0231 2.6755 10.0207 2.53783 9.93434 2.45439C9.85006 2.37298 9.71647 2.37298 9.63219 2.45439L5.00213 7.08444L0.37207 2.45396C0.285693 2.37052 0.148023 2.3729 0.0645814 2.45928C-0.0168214 2.54356 -0.0168214 2.67717 0.0645813 2.76143L0.0641531 2.76187Z" fill="#FFC107"/>
<path d="M0.218132 2.39046C0.275846 2.39035 0.331236 2.41319 0.37209 2.45396L5.00214 7.08445L9.63219 2.45396C9.71857 2.37052 9.85624 2.3729 9.93968 2.4593C10.0211 2.54358 10.0211 2.67717 9.93968 2.76145L5.15567 7.54546C5.07076 7.63035 4.93311 7.63035 4.84818 7.54546L0.0641741 2.76145C-0.0206123 2.6764 -0.0203882 2.53871 0.0646643 2.45392C0.105417 2.41329 0.160602 2.39048 0.218132 2.39046Z" fill="#333333"/>
</g>
<defs>
<clipPath id="clip0">
<rect width="10" height="10" fill="white" transform="translate(10 10) rotate(-180)"/>
</clipPath>
</defs>
</svg>
