<svg width="25" height="25" viewBox="0 0 25 25" fill="none" xmlns="http://www.w3.org/2000/svg">
<g clip-path="url(#clip0)">
<path d="M16.576 13.3152H0.815217C0.365216 13.3152 0 12.95 0 12.5C0 12.05 0.365216 11.6848 0.815217 11.6848H16.576C17.026 11.6848 17.3912 12.05 17.3912 12.5C17.3912 12.95 17.026 13.3152 16.576 13.3152Z" fill="#C6C3BD"/>
<path d="M12.2283 17.663C12.0196 17.663 11.811 17.5838 11.6522 17.424C11.3337 17.1055 11.3337 16.5892 11.6522 16.2706L15.4239 12.499L11.6522 8.72725C11.3337 8.40881 11.3337 7.89233 11.6522 7.57389C11.9708 7.25544 12.4871 7.25544 12.8055 7.57389L17.1533 11.9218C17.4717 12.2403 17.4717 12.7566 17.1533 13.075L12.8055 17.4228C12.6457 17.5838 12.4371 17.663 12.2283 17.663Z" fill="#C6C3BD"/>
<path d="M13.0434 24.4566C8.09653 24.4566 3.72926 21.4805 1.91512 16.8738C1.74993 16.4565 1.95632 15.9826 2.37488 15.8174C2.79224 15.6544 3.26732 15.8576 3.43251 16.2784C4.99886 20.2555 8.77163 22.8262 13.0434 22.8262C18.7367 22.8262 23.3695 18.1934 23.3695 12.5C23.3695 6.80663 18.7367 2.17386 13.0434 2.17386C8.77163 2.17386 4.99886 4.7445 3.43251 8.72167C3.26612 9.14242 2.79224 9.34562 2.37488 9.18262C1.95632 9.01743 1.74993 8.54354 1.91512 8.12618C3.72926 3.51949 8.09653 0.543427 13.0434 0.543427C19.6358 0.543427 25 5.90762 25 12.5C25 19.0924 19.6358 24.4566 13.0434 24.4566Z" fill="#C6C3BD"/>
</g>
<defs>
<clipPath id="clip0">
<rect width="25" height="25" fill="white"/>
</clipPath>
</defs>
</svg>
