<svg width="25" height="25" viewBox="0 0 25 25" fill="none" xmlns="http://www.w3.org/2000/svg">
<path d="M23.4388 11.7758H10.1492C9.7489 11.7758 9.42139 12.1034 9.42139 12.5037C9.42139 12.9039 9.7489 13.2315 10.1492 13.2315H23.4388C23.8391 13.2315 24.1666 12.9039 24.1666 12.5037C24.1666 12.1034 23.8464 11.7758 23.4388 11.7758Z" fill="#333333"/>
<path d="M4.21729 9.11938C2.34684 9.11938 0.833008 10.6332 0.833008 12.5037C0.833008 14.3741 2.34684 15.8879 4.21729 15.8879C6.08774 15.8879 7.60157 14.3741 7.60157 12.5037C7.60157 10.6332 6.08774 9.11938 4.21729 9.11938ZM4.21729 14.4323C3.14742 14.4323 2.28861 13.5663 2.28861 12.5037C2.28861 11.4338 3.1547 10.575 4.21729 10.575C5.27988 10.575 6.14596 11.4411 6.14596 12.5037C6.14596 13.5663 5.27988 14.4323 4.21729 14.4323Z" fill="#333333"/>
<path d="M23.4388 2.67831H10.1492C9.7489 2.67831 9.42139 3.00583 9.42139 3.40612C9.42139 3.80641 9.7489 4.13392 10.1492 4.13392H23.4388C23.8391 4.13392 24.1666 3.80641 24.1666 3.40612C24.1666 3.00583 23.8464 2.67831 23.4388 2.67831Z" fill="#333333"/>
<path d="M4.21729 0C2.34684 0 0.833008 1.51383 0.833008 3.38428C0.833008 5.25473 2.34684 6.76856 4.21729 6.76856C6.08774 6.76856 7.60157 5.25473 7.60157 3.38428C7.60157 1.52111 6.08774 0.00727802 4.21729 0ZM4.21729 5.32023C3.14742 5.32023 2.28861 4.45415 2.28861 3.39156C2.28861 2.32897 3.1547 1.46288 4.21729 1.46288C5.28716 1.46288 6.14596 2.32897 6.14596 3.39156C6.14596 4.45415 5.27988 5.32023 4.21729 5.32023Z" fill="#333333"/>
<path d="M23.4388 20.8734H10.1492C9.7489 20.8734 9.42139 21.2009 9.42139 21.6012C9.42139 22.0014 9.7489 22.329 10.1492 22.329H23.4388C23.8391 22.329 24.1666 22.0014 24.1666 21.6012C24.1666 21.2009 23.8464 20.8734 23.4388 20.8734Z" fill="#333333"/>
<path d="M4.21729 18.2314C2.34684 18.2314 0.833008 19.7453 0.833008 21.6157C0.833008 23.4862 2.34684 25 4.21729 25C6.08774 25 7.60157 23.4862 7.60157 21.6157C7.60157 19.7526 6.08774 18.2314 4.21729 18.2314ZM4.21729 23.5517C3.14742 23.5517 2.28861 22.6856 2.28861 21.623C2.28861 20.5531 3.1547 19.6943 4.21729 19.6943C5.28716 19.6943 6.14596 20.5604 6.14596 21.623C6.14596 22.6856 5.27988 23.5517 4.21729 23.5517Z" fill="#333333"/>
</svg>
