<svg width="25" height="25" viewBox="0 0 25 25" fill="none" xmlns="http://www.w3.org/2000/svg">
<path d="M16.4803 24.3492C16.3501 24.3931 16.2191 24.4358 16.0872 24.475C16.2195 24.4354 16.3501 24.3927 16.4803 24.3492Z" fill="#F9EDE0"/>
<path d="M17.1334 24.1095C16.9929 24.1655 16.8523 24.2207 16.7092 24.2716C16.8523 24.2203 16.9933 24.1655 17.1334 24.1095Z" fill="#F9EDE0"/>
<path d="M12.5 25C19.4036 25 25 19.4036 25 12.5C25 5.59644 19.4036 0 12.5 0C5.59644 0 0 5.59644 0 12.5C0 19.4036 5.59644 25 12.5 25Z" fill="#EFECE8"/>
<path d="M15.835 24.5466C15.7074 24.5819 15.579 24.6155 15.4492 24.647C15.579 24.6155 15.7074 24.5819 15.835 24.5466Z" fill="#F9EDE0"/>
<path d="M11.5943 24.9638C11.4417 24.953 11.2896 24.9414 11.1392 24.925C11.29 24.9414 11.4422 24.953 11.5943 24.9638Z" fill="#F9EDE0"/>
<path d="M9.55033 24.6466C9.42102 24.6151 9.29257 24.5815 9.16455 24.5461C9.29257 24.5819 9.42102 24.6155 9.55033 24.6466Z" fill="#F9EDE0"/>
<path d="M10.8806 24.8923C10.744 24.8746 10.6078 24.8561 10.4724 24.8341C10.6073 24.8561 10.744 24.8742 10.8806 24.8923Z" fill="#F9EDE0"/>
<path d="M12.5 25C12.2699 25 12.0419 24.9927 11.8147 24.9806C12.0419 24.9927 12.2699 25 12.5 25Z" fill="#F9EDE0"/>
<path d="M10.2056 24.7862C10.0746 24.7621 9.94401 24.7362 9.8147 24.7078C9.94401 24.7362 10.0746 24.7621 10.2056 24.7862Z" fill="#F9EDE0"/>
<path d="M7.68353 24.0371C7.48913 23.9556 7.29689 23.8703 7.10767 23.7798C7.29732 23.8703 7.48956 23.956 7.68353 24.0371Z" fill="#F9EDE0"/>
<path d="M8.29059 24.2716C8.14792 24.2203 8.00697 24.1655 7.86646 24.1095C8.00697 24.1655 8.14792 24.2203 8.29059 24.2716Z" fill="#F9EDE0"/>
<path d="M13.1853 24.9806C12.9582 24.9927 12.7302 25 12.5 25C12.7302 25 12.9582 24.9927 13.1853 24.9806Z" fill="#F9EDE0"/>
<path d="M13.8607 24.925C13.7098 24.9414 13.5577 24.953 13.4055 24.9638C13.5577 24.953 13.7098 24.9414 13.8607 24.925Z" fill="#F9EDE0"/>
<path d="M15.1859 24.7078C15.0561 24.7362 14.926 24.7621 14.7949 24.7862C14.9255 24.7621 15.0561 24.7362 15.1859 24.7078Z" fill="#F9EDE0"/>
<path d="M14.5281 24.8336C14.3927 24.8556 14.2565 24.8741 14.1199 24.8918C14.2561 24.8741 14.3927 24.856 14.5281 24.8336Z" fill="#F9EDE0"/>
<path d="M17.8897 23.7806C17.7013 23.8707 17.5099 23.956 17.3164 24.0371C17.5099 23.956 17.7013 23.8711 17.8897 23.7806Z" fill="#F9EDE0"/>
<path d="M8.91288 24.475C8.78055 24.4354 8.64995 24.3927 8.51978 24.3492C8.64995 24.3927 8.78055 24.4354 8.91288 24.475Z" fill="#F9EDE0"/>
<path d="M17.3163 24.0371C17.256 24.0625 17.1943 24.0849 17.1335 24.1091C17.1939 24.0849 17.2555 24.0625 17.3163 24.0371Z" fill="#F9EDE0"/>
<path d="M17.9069 23.7729C17.9013 23.7754 17.8953 23.778 17.8896 23.7806C17.8953 23.778 17.9013 23.7759 17.9069 23.7729Z" fill="#F9EDE0"/>
<path d="M9.81433 24.7078C9.72597 24.6884 9.63804 24.6681 9.55054 24.647C9.63804 24.6681 9.72597 24.6884 9.81433 24.7078Z" fill="#F9EDE0"/>
<path d="M10.4719 24.8336C10.3827 24.819 10.2939 24.8026 10.2051 24.7862C10.2943 24.8026 10.3827 24.8194 10.4719 24.8336Z" fill="#F9EDE0"/>
<path d="M11.8145 24.9806C11.7408 24.9767 11.6675 24.969 11.5942 24.9638C11.6679 24.969 11.7408 24.9767 11.8145 24.9806Z" fill="#F9EDE0"/>
<path d="M11.1392 24.925C11.0526 24.9155 10.9668 24.9034 10.8806 24.8922C10.9668 24.9034 11.0526 24.9155 11.1392 24.925Z" fill="#F9EDE0"/>
<path d="M7.10816 23.7798C7.10342 23.7776 7.09825 23.7754 7.09351 23.7733C7.09825 23.7754 7.10342 23.7776 7.10816 23.7798Z" fill="#F9EDE0"/>
<path d="M13.4056 24.9638C13.3319 24.969 13.259 24.9767 13.1853 24.9806C13.259 24.9767 13.3319 24.969 13.4056 24.9638Z" fill="#F9EDE0"/>
<path d="M16.0871 24.475C16.0035 24.5 15.9194 24.5233 15.835 24.5466C15.9194 24.5233 16.0035 24.5 16.0871 24.475Z" fill="#F9EDE0"/>
<path d="M16.7093 24.2716C16.6335 24.2987 16.5568 24.3233 16.4805 24.3492C16.5568 24.3233 16.6335 24.2987 16.7093 24.2716Z" fill="#F9EDE0"/>
<path d="M7.86684 24.1095C7.80607 24.0854 7.74443 24.0625 7.68408 24.0375C7.74443 24.0625 7.80607 24.0849 7.86684 24.1095Z" fill="#F9EDE0"/>
<path d="M8.51989 24.3492C8.4436 24.3233 8.36645 24.2987 8.29102 24.2716C8.36645 24.2987 8.44317 24.3233 8.51989 24.3492Z" fill="#F9EDE0"/>
<path d="M14.1195 24.8922C14.0333 24.9034 13.9475 24.9159 13.8608 24.925C13.9475 24.9155 14.0333 24.9034 14.1195 24.8922Z" fill="#F9EDE0"/>
<path d="M15.4496 24.6466C15.3621 24.6677 15.2742 24.688 15.1858 24.7074C15.2742 24.6884 15.3621 24.6681 15.4496 24.6466Z" fill="#F9EDE0"/>
<path d="M14.7944 24.7862C14.7056 24.8026 14.6172 24.8194 14.5276 24.8336C14.6172 24.8194 14.7056 24.8026 14.7944 24.7862Z" fill="#F9EDE0"/>
<path d="M9.165 24.5466C9.08095 24.5233 8.99646 24.5 8.91284 24.475C8.99646 24.5 9.08052 24.5233 9.165 24.5466Z" fill="#F9EDE0"/>
<path d="M15.3611 13.3595C16.7538 12.4323 17.6723 10.85 17.6723 9.05172C17.6723 6.19525 15.3564 3.8793 12.4999 3.8793C9.64342 3.8793 7.32747 6.19525 7.32747 9.05172C7.32747 10.85 8.24601 12.4323 9.63868 13.3595C9.63868 13.3595 9.63911 13.3599 9.63954 13.3599C9.63911 13.3599 9.63911 13.3595 9.63911 13.3595C6.30549 14.3642 3.7098 17.0698 2.87402 20.4737L2.87445 20.4741C3.01066 20.6384 3.15204 20.7987 3.29644 20.956C3.33135 20.9944 3.36799 21.031 3.40376 21.0685C3.51497 21.1866 3.62747 21.303 3.74299 21.4168C3.79083 21.4638 3.83954 21.509 3.88825 21.5552C3.99514 21.6569 4.10333 21.7573 4.21368 21.8552C4.26842 21.9034 4.32402 21.9513 4.3792 21.9987C4.48739 22.0914 4.59687 22.1823 4.70851 22.2711C4.76713 22.3181 4.82618 22.3642 4.88523 22.4103C4.99816 22.4974 5.11282 22.5819 5.22876 22.6646C5.28868 22.7073 5.34773 22.7509 5.40851 22.7927C5.53092 22.8771 5.65549 22.9582 5.78092 23.0384C5.83739 23.0741 5.89256 23.1112 5.94945 23.1465C6.09428 23.2358 6.2417 23.3211 6.3904 23.4047C6.42963 23.4267 6.46799 23.4504 6.50764 23.472C6.69989 23.5771 6.89514 23.678 7.09342 23.7733C7.09816 23.7754 7.10333 23.7776 7.10807 23.7797C7.2973 23.8703 7.48954 23.956 7.68394 24.0371C7.74428 24.0625 7.80592 24.0849 7.8667 24.109C8.00721 24.1651 8.14773 24.2202 8.29083 24.2711C8.3667 24.2983 8.44342 24.3228 8.51971 24.3487C8.64989 24.3927 8.78092 24.4353 8.91282 24.4746C8.99644 24.4996 9.08049 24.5228 9.16497 24.5461C9.29256 24.5815 9.42101 24.6151 9.55075 24.6465C9.63825 24.6677 9.72618 24.6879 9.81454 24.7073C9.94428 24.7358 10.0745 24.7616 10.2055 24.7858C10.2943 24.8021 10.3826 24.819 10.4723 24.8332C10.6076 24.8552 10.7439 24.8737 10.8805 24.8914C10.9667 24.9026 11.0525 24.9151 11.1391 24.9241C11.29 24.9405 11.4421 24.9521 11.5943 24.9629C11.668 24.9681 11.7408 24.9759 11.8145 24.9797C12.0417 24.9927 12.2697 25 12.4999 25C12.7301 25 12.9581 24.9927 13.1852 24.9806C13.2589 24.9767 13.3322 24.969 13.4055 24.9638C13.5581 24.953 13.7102 24.9414 13.8607 24.925C13.9473 24.9155 14.0331 24.9034 14.1193 24.8922C14.2559 24.8746 14.3921 24.856 14.5275 24.834C14.6167 24.8194 14.7055 24.803 14.7943 24.7866C14.9253 24.7625 15.0559 24.7366 15.1852 24.7082C15.2736 24.6888 15.3615 24.6685 15.449 24.6474C15.5783 24.6159 15.7068 24.5823 15.8348 24.547C15.9189 24.5237 16.0033 24.5004 16.087 24.4754C16.2193 24.4358 16.3499 24.3931 16.4801 24.3496C16.5564 24.3237 16.6335 24.2991 16.7089 24.272C16.8516 24.2207 16.9926 24.1659 17.1331 24.1099C17.1939 24.0858 17.2555 24.0629 17.3158 24.0379C17.5094 23.9569 17.7007 23.872 17.8891 23.7815C17.8947 23.7789 17.9007 23.7763 17.9064 23.7737C18.1046 23.6784 18.2999 23.5776 18.4921 23.4724C18.5318 23.4509 18.5701 23.4271 18.6094 23.4052C18.7581 23.3215 18.9055 23.2362 19.0503 23.147C19.1072 23.1121 19.1628 23.075 19.2189 23.0388C19.3443 22.9586 19.4689 22.8771 19.5913 22.7931C19.6516 22.7513 19.7111 22.7082 19.771 22.6651C19.887 22.5819 20.0016 22.4974 20.1145 22.4108C20.174 22.3651 20.2326 22.3185 20.2913 22.2715C20.4025 22.1828 20.5124 22.0918 20.6206 21.9991C20.6762 21.9517 20.7318 21.9039 20.7861 21.8556C20.8964 21.7578 21.0046 21.6573 21.1115 21.5556C21.1598 21.5095 21.2089 21.4638 21.2568 21.4172C21.3723 21.3034 21.4852 21.1871 21.596 21.069C21.6314 21.031 21.668 20.9944 21.7033 20.9565C21.8477 20.7991 21.9891 20.6388 22.1253 20.4746L22.1257 20.4741C21.2904 17.0698 18.6947 14.3642 15.3611 13.3595Z" fill="#C6C3BD"/>
</svg>
